HIERARCHY
ROOT Hips
{
	OFFSET 0.00 0.00 0.00
	CHANNELS 6 Xposition Yposition Zposition Xrotation Yrotation Zrotation
	JOINT RightUpLeg
	{
		OFFSET -4.47808 0.00000 0.00000
		CHANNELS 3 Xrotation Yrotation Zrotation
		JOINT RightLeg
		{
			OFFSET 0.00000 -16.40577 0.00000
			CHANNELS 3 Xrotation Yrotation Zrotation
			JOINT RightFoot
			{
				OFFSET 0.00000 -14.64414 0.00000
				CHANNELS 3 Xrotation Yrotation Zrotation
				JOINT RightToeBase
				{
					OFFSET 0.00000 -1.50274 5.60831
					CHANNELS 3 Xrotation Yrotation Zrotation
					End Site
					{
						OFFSET 0.00000 0.00000 2.95275
					}
				}
			}
		}
	}
	JOINT LeftUpLeg
	{
		OFFSET 4.47808 0.00000 0.00000
		CHANNELS 3 Xrotation Yrotation Zrotation
		JOINT LeftLeg
		{
			OFFSET 0.00000 -16.40577 0.00000
			CHANNELS 3 Xrotation Yrotation Zrotation
			JOINT LeftFoot
			{
				OFFSET 0.00000 -14.64414 0.00000
				CHANNELS 3 Xrotation Yrotation Zrotation
				JOINT LeftToeBase
				{
					OFFSET 0.00000 -1.50274 5.60831
					CHANNELS 3 Xrotation Yrotation Zrotation
					End Site
					{
						OFFSET 0.00000 0.00000 2.95275
					}
				}
			}
		}
	}
	JOINT Spine
	{
		OFFSET 0.00000 6.06821 0.00000
		CHANNELS 3 Xrotation Yrotation Zrotation
		JOINT RightShoulder
		{
			OFFSET 0.00000 10.01392 0.00000
			CHANNELS 3 Xrotation Yrotation Zrotation
			JOINT RightArm
			{
				OFFSET -7.19022 0.00000 0.00000
				CHANNELS 3 Xrotation Yrotation Zrotation
				JOINT RightForeArm
				{
					OFFSET -10.17747 0.00000 0.00000
					CHANNELS 3 Yrotation Zrotation Xrotation
					JOINT RightHand
					{
						OFFSET -8.39211 0.00000 0.00000
						CHANNELS 3 Xrotation Yrotation Zrotation
						End Site
						{
							OFFSET -3.93700 0.00000 0.00000
						}
						JOINT RightHandThumb1
						{
							OFFSET 0.00000 0.00000 0.00000
							CHANNELS 3 Xrotation Zrotation Yrotation
							End Site
							{
								OFFSET 0.00000 0.00000 3.93700
							}
						}
					}
				}
			}
		}
		JOINT LeftShoulder
		{
			OFFSET 0.00000 10.01392 0.00000
			CHANNELS 3 Xrotation Yrotation Zrotation
			JOINT LeftArm
			{
				OFFSET 7.19022 0.00000 0.00000
				CHANNELS 3 Xrotation Yrotation Zrotation
				JOINT LeftForeArm
				{
					OFFSET 10.17747 0.00000 0.00000
					CHANNELS 3 Yrotation Zrotation Xrotation
					JOINT LeftHand
					{
						OFFSET 8.39211 0.00000 0.00000
						CHANNELS 3 Xrotation Yrotation Zrotation
						End Site
						{
							OFFSET 3.93700 0.00000 0.00000
						}
						JOINT LeftHandThumb1
						{
							OFFSET 0.00000 0.00000 0.00000
							CHANNELS 3 Xrotation Zrotation Yrotation
							End Site
							{
								OFFSET 0.00000 0.00000 3.93700
							}
						}
					}
				}
			}
		}
		JOINT Head
		{
			OFFSET 0.00000 15.77748 0.00000
			CHANNELS 3 Xrotation Yrotation Zrotation
			End Site
			{
				OFFSET 0.00000 4.52755 0.00000
			}
		}
	}
}
MOTION
Frames: 13
Frame Time: 0.008333
 -3.6459 33.1437 -3.5354 8.7570 -1.6466 2.4933 -1.9661 -6.3661 -2.2739 -1.0642 0.0000 0.0000 -11.0589 -5.5658 -1.1245 5.3702 0.0000 0.0000 -1.7256 2.4223 2.8607 1.2232 -0.0000 -0.0000 -10.1870 8.7763 -13.9082 10.3107 0.0000 -0.0000 -9.3277 -0.0879 -0.6654 5.2966 -25.8507 -27.6670 -32.1376 -2.4121 34.8955 12.6392 0.0000 8.4142 -1.1041 7.4081 8.5017 32.8623 0.0000 -24.3270 -9.0828 23.3943 32.1266 -28.3003 2.7802 -30.9841 -1.2127 0.0000 23.2532 0.4425 2.7111 -9.2743 33.1476 -0.0000 26.2537 -6.2075 -2.6979 -1.0237
 -3.6487 33.1433 -3.5348 8.7584 -1.6459 2.4943 -1.9621 -6.3495 -2.2709 -1.0671 -0.0000 -0.0000 -11.0621 -5.5882 -1.1286 5.3427 -0.0000 -0.0000 -1.7288 2.4307 2.8656 1.2269 -0.0000 0.0000 -10.1894 8.7645 -13.9158 10.3680 0.0000 0.0000 -9.3254 -0.0758 -0.6853 5.2946 -25.8703 -27.6540 -32.1560 -2.4397 34.9150 12.6256 0.0000 8.4412 -1.1386 7.6578 8.4828 32.8623 0.0000 -24.3270 -9.0978 23.4007 32.1563 -28.3434 2.7897 -31.0122 -1.2210 0.0000 23.2752 0.4405 2.6983 -9.2756 33.1476 -0.0000 26.2537 -6.2291 -2.6981 -0.9627
 -3.6494 33.1430 -3.5331 8.7564 -1.6361 2.4935 -1.9489 -6.3635 -2.2691 -1.0809 -0.0000 -0.0000 -11.0651 -5.5837 -1.1225 5.3752 0.0000 0.0000 -1.7265 2.4113 2.8677 1.2313 0.0000 0.0000 -10.1964 8.7717 -13.9239 10.3797 0.0000 -0.0000 -9.3310 -0.0834 -0.6855 5.3006 -25.8799 -27.6553 -32.1591 -2.4330 34.9279 12.6264 0.0000 8.4371 -1.1366 7.6458 8.4816 32.8623 0.0000 -24.3270 -9.0948 23.3923 32.1549 -28.3401 2.7936 -31.0119 -1.2160 0.0000 23.2612 0.4386 2.6822 -9.2912 33.1476 -0.0000 26.2537 -6.2196 -2.6994 -0.9664
 -3.6518 33.1428 -3.5313 8.7542 -1.6418 2.4912 -1.9390 -6.3571 -2.2614 -1.0930 -0.0000 -0.0000 -11.0543 -5.5740 -1.1245 5.3299 -0.0000 0.0000 -1.7212 2.4314 2.8769 1.2311 -0.0000 -0.0000 -10.1910 8.7459 -13.9160 10.3334 0.0000 -0.0000 -9.3345 -0.0774 -0.6901 5.3104 -25.8944 -27.6627 -32.1672 -2.4546 34.9642 12.6917 0.0000 8.4584 -1.1365 7.6187 8.5099 32.8623 0.0000 -24.3270 -9.1207 23.3767 32.1696 -28.3217 2.7928 -31.0117 -1.2128 0.0000 23.2406 0.4399 2.6802 -9.3238 33.1476 -0.0000 26.2537 -6.2105 -2.6980 -0.9608
 -3.6528 33.1425 -3.5295 8.7516 -1.6404 2.4905 -1.9285 -6.3565 -2.2593 -1.0995 0.0000 0.0000 -11.0510 -5.5827 -1.1178 5.3438 0.0000 -0.0000 -1.7147 2.4396 2.8756 1.2284 0.0000 0.0000 -10.2031 8.7538 -13.9148 10.4052 -0.0000 0.0000 -9.3395 -0.0759 -0.6832 5.3081 -25.8873 -27.6507 -32.1442 -2.4095 34.9335 12.6228 0.0000 8.4403 -1.1339 7.6034 8.5074 32.8623 0.0000 -24.3270 -9.1051 23.3779 32.1535 -28.3317 2.7817 -31.0091 -1.1978 0.0000 23.2139 0.4394 2.6743 -9.3351 33.1476 -0.0000 26.2537 -6.1903 -2.7091 -1.0100
 -3.6545 33.1423 -3.5276 8.7441 -1.6405 2.4953 -1.9123 -6.3494 -2.2600 -1.1098 0.0000 0.0000 -11.0538 -5.5919 -1.1220 5.3401 -0.0000 0.0000 -1.7006 2.4384 2.8777 1.2241 0.0000 0.0000 -10.1971 8.7365 -13.9114 10.3905 -0.0000 0.0000 -9.3392 -0.0760 -0.6940 5.3206 -25.8835 -27.6418 -32.1352 -2.4047 34.9338 12.6210 0.0000 8.4331 -1.1349 7.6203 8.4964 32.8623 0.0000 -24.3270 -9.1181 23.3596 32.1657 -28.3170 2.7928 -31.0072 -1.1959 0.0000 23.2216 0.4351 2.6498 -9.3290 33.1476 -0.0000 26.2537 -6.1767 -2.7143 -1.0103
 -3.6561 33.1420 -3.5260 8.7435 -1.6416 2.4928 -1.9018 -6.3389 -2.2538 -1.1212 0.0000 0.0000 -11.0483 -5.5981 -1.1320 5.3147 -0.0000 0.0000 -1.6985 2.4502 2.8804 1.2258 0.0000 0.0000 -10.2019 8.7349 -13.8896 10.3728 0.0000 -0.0000 -9.3427 -0.0640 -0.6954 5.3063 -25.8781 -27.6411 -32.0939 -2.3967 34.9236 12.6203 0.0000 8.4042 -1.1418 7.6128 8.5559 32.8623 0.0000 -24.3270 -9.1022 23.3667 32.1658 -28.3568 2.7862 -31.0206 -1.1845 0.0000 23.2211 0.4373 2.6677 -9.3127 33.1476 -0.0000 26.2537 -6.1852 -2.7065 -0.9769
 -3.6567 33.1416 -3.5245 8.7482 -1.6413 2.4947 -1.9008 -6.3434 -2.2550 -1.1267 0.0000 -0.0000 -11.0569 -5.5893 -1.1300 5.3496 -0.0000 -0.0000 -1.7003 2.4584 2.8798 1.2244 -0.0000 -0.0000 -10.2004 8.7345 -13.9113 10.3582 0.0000 0.0000 -9.3534 -0.0636 -0.6985 5.3258 -25.9096 -27.6510 -32.1554 -2.4210 34.9628 12.6716 0.0000 8.4693 -1.1358 7.5849 8.5423 32.8623 0.0000 -24.3270 -9.1117 23.3615 32.1774 -28.3294 2.7802 -31.0290 -1.1959 0.0000 23.2067 0.4385 2.6648 -9.3479 33.1476 -0.0000 26.2537 -6.1741 -2.7046 -0.9740
 -3.6581 33.1410 -3.5214 8.7440 -1.6433 2.4909 -1.8819 -6.3355 -2.2481 -1.1456 0.0000 -0.0000 -11.0522 -5.5982 -1.1283 5.3656 -0.0000 -0.0000 -1.6888 2.4752 2.8845 1.2189 -0.0000 -0.0000 -10.2036 8.7231 -13.9091 10.3242 0.0000 0.0000 -9.3575 -0.0613 -0.6932 5.3218 -25.9039 -27.6582 -32.1375 -2.4177 34.9586 12.6695 0.0000 8.4511 -1.1399 7.5964 8.5602 32.8623 0.0000 -24.3270 -9.1180 23.3630 32.1776 -28.3182 2.7561 -31.0310 -1.1847 0.0000 23.2189 0.4385 2.6665 -9.3429 33.1476 -0.0000 26.2537 -6.1630 -2.7022 -0.9788
 -3.6593 33.1409 -3.5211 8.7439 -1.6425 2.4942 -1.8805 -6.3306 -2.2485 -1.1469 0.0000 -0.0000 -11.0483 -5.6049 -1.1328 5.3241 0.0000 0.0000 -1.6913 2.5008 2.8788 1.2160 -0.0000 -0.0000 -10.2043 8.7363 -13.9523 10.4078 -0.0000 -0.0000 -9.3591 -0.0614 -0.6989 5.3220 -25.9029 -27.6559 -32.1424 -2.4168 34.9565 12.6629 0.0000 8.4534 -1.1410 7.5888 8.5765 32.8623 0.0000 -24.3270 -9.1068 23.3678 32.1789 -28.3432 2.7683 -31.0362 -1.1974 0.0000 23.2412 0.4366 2.6579 -9.3321 33.1476 -0.0000 26.2537 -6.1581 -2.7005 -0.9801
 -3.6620 33.1409 -3.5185 8.7421 -1.6478 2.4938 -1.8657 -6.3032 -2.2419 -1.1606 -0.0000 0.0000 -11.0487 -5.6288 -1.1403 5.3494 -0.0000 -0.0000 -1.7014 2.5825 2.8848 1.2465 -0.0000 -0.0000 -10.2153 8.6398 -13.9113 10.3815 -0.0000 0.0000 -9.3671 -0.0515 -0.7048 5.3203 -25.9031 -27.6537 -32.1547 -2.4278 34.9568 12.6609 0.0000 8.4804 -1.1358 7.5661 8.5632 32.8623 0.0000 -24.3270 -9.1173 23.3477 32.1917 -28.3092 2.7707 -31.0361 -1.2183 0.0000 23.2426 0.4364 2.6592 -9.3224 33.1476 -0.0000 26.2537 -6.1430 -2.7067 -0.9704
 -3.6634 33.1407 -3.5164 8.7385 -1.6519 2.4932 -1.8551 -6.3129 -2.2378 -1.1704 0.0000 0.0000 -11.0437 -5.6099 -1.1501 5.3964 -0.0000 0.0000 -1.7015 2.6086 2.8890 1.2627 -0.0000 -0.0000 -10.2222 8.6111 -13.9056 10.3403 -0.0000 -0.0000 -9.3723 -0.0654 -0.6973 5.3026 -25.8642 -27.6523 -32.1247 -2.4029 34.9201 12.6074 0.0000 8.4604 -1.1343 7.5677 8.5496 32.8623 0.0000 -24.3270 -9.1031 23.3658 32.1796 -28.3093 2.7677 -31.0291 -1.2346 0.0000 23.2367 0.4410 2.6827 -9.3396 33.1476 -0.0000 26.2537 -6.1244 -2.6817 -0.9915
 -3.6635 33.1402 -3.5149 8.7430 -1.6486 2.4954 -1.8551 -6.3236 -2.2390 -1.1754 0.0000 0.0000 -11.0519 -5.6129 -1.1447 5.3762 0.0000 -0.0000 -1.6814 2.5187 2.8881 1.2249 0.0000 0.0000 -10.2070 8.6942 -13.9339 10.3417 0.0000 -0.0000 -9.3794 -0.0643 -0.6999 5.3286 -25.9066 -27.6614 -32.1934 -2.4289 34.9559 12.6685 0.0000 8.5004 -1.1370 7.5479 8.5920 32.8623 0.0000 -24.3270 -9.1214 23.3648 32.1898 -28.2839 2.7448 -31.0385 -1.2331 0.0000 23.2103 0.4351 2.6555 -9.3085 33.1476 -0.0000 26.2537 -6.1207 -2.6944 -0.9835
